<?xml version="1.0" encoding="utf-8"?>
<!-- Generator: Adobe Illustrator 22.1.0, SVG Export Plug-In . SVG Version: 6.00 Build 0)  -->
<svg version="1.1" id="图层_1" xmlns="http://www.w3.org/2000/svg" xmlns:xlink="http://www.w3.org/1999/xlink" x="0px" y="0px"
	 viewBox="0 0 730.7 730.7" style="enable-background:new 0 0 730.7 730.7;" xml:space="preserve">
<style type="text/css">
	.st0{fill:#AAAAAA;}
</style>
<g>
	<path class="st0" d="M365.4,730.7c-49.3,0-97.2-9.7-142.2-28.7c-43.5-18.4-82.6-44.7-116.1-78.3c-33.5-33.5-59.9-72.6-78.3-116.1
		C9.7,462.5,0,414.7,0,365.4c0-49.3,9.7-97.2,28.7-142.2C47.1,179.6,73.5,140.6,107,107c33.5-33.5,72.6-59.9,116.1-78.3
		C268.2,9.7,316.1,0,365.4,0c49.3,0,97.2,9.7,142.2,28.7c43.5,18.4,82.6,44.7,116.1,78.3c33.5,33.5,59.9,72.6,78.3,116.1
		c19.1,45.1,28.7,92.9,28.7,142.2c0,49.3-9.7,97.2-28.7,142.2c-18.4,43.5-44.7,82.6-78.3,116.1c-33.5,33.5-72.6,59.9-116.1,78.3
		C462.5,721.1,414.7,730.7,365.4,730.7L365.4,730.7z M365.4,54.6C194,54.6,54.6,194,54.6,365.4c0,171.3,139.4,310.7,310.8,310.7
		c171.3,0,310.7-139.4,310.7-310.7C676.1,194,536.7,54.6,365.4,54.6L365.4,54.6z M365.4,54.6"/>
</g>
</svg>
