<?xml version="1.0" encoding="utf-8"?>
<!-- Generator: Adobe Illustrator 22.1.0, SVG Export Plug-In . SVG Version: 6.00 Build 0)  -->
<svg version="1.1" id="图层_1" xmlns="http://www.w3.org/2000/svg" xmlns:xlink="http://www.w3.org/1999/xlink" x="0px" y="0px"
	 viewBox="0 0 803.3 803.3" style="enable-background:new 0 0 803.3 803.3;" xml:space="preserve">
<style type="text/css">
	.st0{fill:#258EFB;}
</style>
<g>
	<path class="st0" d="M401.7,0C179.8,0,0,179.8,0,401.7c0,221.8,179.8,401.7,401.7,401.7c221.8,0,401.7-179.8,401.7-401.7
		C803.3,179.8,623.5,0,401.7,0L401.7,0z M617,295.6L367,545.6c-5,5-11.8,7.8-18.9,7.8c-7.1,0-13.9-2.8-18.9-7.8l-125-125
		c-5-5-7.8-11.8-7.8-18.9c0-7.1,2.8-13.9,7.8-18.9c5-5,11.8-7.8,18.9-7.8c7.1,0,13.9,2.8,18.9,7.8l106,106l231-231
		c10.5-10.5,27.4-10.5,37.9,0C627.4,268.2,627.4,285.2,617,295.6L617,295.6z M617,295.6"/>
</g>
</svg>
