<?xml version="1.0" encoding="utf-8"?>
<!-- Generator: Adobe Illustrator 22.1.0, SVG Export Plug-In . SVG Version: 6.00 Build 0)  -->
<svg version="1.1" id="图层_1" xmlns="http://www.w3.org/2000/svg" xmlns:xlink="http://www.w3.org/1999/xlink" x="0px" y="0px"
	 viewBox="0 0 716.8 716.8" style="enable-background:new 0 0 716.8 716.8;" xml:space="preserve">
<style type="text/css">
	.st0{fill:#FF3131;}
</style>
<g>
	<path class="st0" d="M358.4,0C160.5,0,0,160.5,0,358.4s160.5,358.4,358.4,358.4c198,0,358.4-160.5,358.4-358.4S556.4,0,358.4,0
		L358.4,0z M507.4,460.9c13.3,13.3,13.7,34.6,0.8,47.4c-12.8,12.9-34,12.4-47.3-0.9L358.4,404.9L255.9,507.4
		c-13.3,13.4-34.6,13.8-47.4,1c-12.8-12.9-12.4-34.1,1-47.5l102.4-102.4L209.4,256c-13.4-13.4-13.7-34.6-0.9-47.5
		s34.1-12.4,47.4,0.9l102.6,102.5l102.4-102.4c13.2-13.4,34.6-13.8,47.4-0.9c12.8,12.8,12.5,34-0.9,47.4L404.9,358.4L507.4,460.9z"
		/>
</g>
</svg>
