<?xml version="1.0" encoding="utf-8"?>
<!-- Generator: Adobe Illustrator 22.1.0, SVG Export Plug-In . SVG Version: 6.00 Build 0)  -->
<svg version="1.1" id="图层_1" xmlns="http://www.w3.org/2000/svg" xmlns:xlink="http://www.w3.org/1999/xlink" x="0px" y="0px"
	 viewBox="0 0 175 175" style="enable-background:new 0 0 175 175;" xml:space="preserve">
<path d="M43.8,69.7c0,5.2,4.2,9.4,9.4,9.4s9.4-4.2,9.4-9.4s-4.2-9.4-9.4-9.4S43.8,64.5,43.8,69.7z"/>
<path d="M112.5,69.7c0,5.2,4.2,9.4,9.4,9.4s9.4-4.2,9.4-9.4s-4.2-9.4-9.4-9.4S112.5,64.5,112.5,69.7z"/>
<path d="M87.5,0C39.2,0,0,39.2,0,87.5S39.2,175,87.5,175S175,135.8,175,87.5S135.8,0,87.5,0z M138.9,138.9
	c-6.7,6.7-14.5,11.9-23.1,15.6c-8.9,3.8-18.4,5.7-28.3,5.7s-19.3-1.9-28.3-5.7c-8.7-3.7-16.4-8.9-23.1-15.6s-11.9-14.5-15.6-23.1
	c-3.8-8.9-5.7-18.4-5.7-28.3s1.9-19.3,5.7-28.3c3.7-8.7,8.9-16.4,15.6-23.1s14.5-11.9,23.1-15.6c8.9-3.8,18.4-5.7,28.3-5.7
	s19.3,1.9,28.3,5.7c8.7,3.7,16.4,8.9,23.1,15.6s11.9,14.5,15.6,23.1c3.8,8.9,5.7,18.4,5.7,28.3s-1.9,19.3-5.7,28.3
	C150.8,124.4,145.5,132.2,138.9,138.9z"/>
<path d="M117.2,97.9H57.8c-0.9,0-1.6,0.7-1.6,1.6v9.4c0,0.9,0.7,1.6,1.6,1.6h59.4c0.9,0,1.6-0.7,1.6-1.6v-9.4
	C118.8,98.6,118,97.9,117.2,97.9z"/>
</svg>
