<?xml version="1.0" encoding="utf-8"?>
<!-- Generator: Adobe Illustrator 22.1.0, SVG Export Plug-In . SVG Version: 6.00 Build 0)  -->
<svg version="1.1" id="图层_1" xmlns="http://www.w3.org/2000/svg" xmlns:xlink="http://www.w3.org/1999/xlink" x="0px" y="0px"
	 viewBox="0 0 175 175" style="enable-background:new 0 0 175 175;" xml:space="preserve">
<style type="text/css">
	.st0{fill:#FFFFFF;}
</style>
<g>
	<path class="st0" d="M87.5,0H0v87.5C0,39.2,39.2,0,87.5,0z"/>
	<path class="st0" d="M87.5,175H175V87.5C175,135.8,135.8,175,87.5,175z"/>
	<path class="st0" d="M115.8,20.5c-9-3.8-18.4-5.7-28.3-5.7s-19.4,1.9-28.3,5.7c-8.6,3.7-16.4,8.9-23.1,15.6
		c-6.7,6.7-11.9,14.4-15.6,23.1c-3.8,9-5.7,18.4-5.7,28.3c0,9.9,1.9,19.4,5.7,28.3c3.7,8.6,8.9,16.4,15.6,23.1
		c6.7,6.7,14.4,11.9,23.1,15.6c9,3.8,18.4,5.7,28.3,5.7c9.9,0,19.4-1.9,28.3-5.7c8.6-3.7,16.4-8.9,23.1-15.6
		c6.6-6.7,11.9-14.5,15.6-23.1c3.8-9,5.7-18.4,5.7-28.3s-1.9-19.4-5.7-28.3c-3.7-8.6-8.9-16.4-15.6-23.1
		C132.2,29.4,124.5,24.2,115.8,20.5z M43.8,69.7c0-5.2,4.2-9.4,9.4-9.4s9.4,4.2,9.4,9.4s-4.2,9.4-9.4,9.4S43.8,74.9,43.8,69.7z
		 M118.8,108.9c0,0.9-0.7,1.6-1.6,1.6H57.8c-0.9,0-1.6-0.7-1.6-1.6v-9.4c0-0.9,0.7-1.6,1.6-1.6h59.4c0.8,0,1.6,0.7,1.6,1.6V108.9z
		 M121.9,79.1c-5.2,0-9.4-4.2-9.4-9.4c0-5.2,4.2-9.4,9.4-9.4s9.4,4.2,9.4,9.4S127.1,79.1,121.9,79.1z"/>
	<path class="st0" d="M0,87.5V175h87.5C39.2,175,0,135.8,0,87.5z"/>
	<path class="st0" d="M87.5,0C135.8,0,175,39.2,175,87.5V0H87.5z"/>
</g>
</svg>
